<svg xmlns="http://www.w3.org/2000/svg" viewBox="0 0 200 200" width="200" height="200">
  <defs>
    <radialGradient id="hiveGrad" cx="50%" cy="50%" r="50%">
      <stop offset="0%" style="stop-color:#8B4513;stop-opacity:1" />
      <stop offset="100%" style="stop-color:#654321;stop-opacity:1" />
    </radialGradient>
  </defs>
  
  <!-- Background -->
  <rect width="200" height="200" fill="#228B22"/>
  
  <!-- Tree trunk -->
  <rect x="85" y="120" width="30" height="80" fill="#8B4513"/>
  
  <!-- Beehive -->
  <ellipse cx="100" cy="100" rx="50" ry="60" fill="url(#hiveGrad)"/>
  
  <!-- Hive texture lines -->
  <ellipse cx="100" cy="80" rx="45" ry="8" fill="none" stroke="#5D4037" stroke-width="2"/>
  <ellipse cx="100" cy="90" rx="47" ry="8" fill="none" stroke="#5D4037" stroke-width="2"/>
  <ellipse cx="100" cy="100" rx="49" ry="8" fill="none" stroke="#5D4037" stroke-width="2"/>
  <ellipse cx="100" cy="110" rx="47" ry="8" fill="none" stroke="#5D4037" stroke-width="2"/>
  <ellipse cx="100" cy="120" rx="45" ry="8" fill="none" stroke="#5D4037" stroke-width="2"/>
  <ellipse cx="100" cy="130" rx="40" ry="8" fill="none" stroke="#5D4037" stroke-width="2"/>
  <ellipse cx="100" cy="140" rx="35" ry="8" fill="none" stroke="#5D4037" stroke-width="2"/>
  
  <!-- Hive entrance -->
  <ellipse cx="100" cy="120" rx="8" ry="12" fill="#333"/>
  
  <!-- Flying bees -->
  <g>
    <!-- Bee 1 -->
    <ellipse cx="160" cy="60" rx="8" ry="3" fill="#FFD700"/>
    <rect x="158" y="58" width="1" height="6" fill="#333"/>
    <rect x="161" y="58" width="1" height="6" fill="#333"/>
    <ellipse cx="155" cy="55" rx="3" ry="2" fill="#E0E0E0" opacity="0.7"/>
    <ellipse cx="165" cy="55" rx="3" ry="2" fill="#E0E0E0" opacity="0.7"/>
    
    <!-- Bee 2 -->
    <ellipse cx="40" cy="80" rx="8" ry="3" fill="#FFD700"/>
    <rect x="38" y="78" width="1" height="6" fill="#333"/>
    <rect x="41" y="78" width="1" height="6" fill="#333"/>
    <ellipse cx="35" cy="75" rx="3" ry="2" fill="#E0E0E0" opacity="0.7"/>
    <ellipse cx="45" cy="75" rx="3" ry="2" fill="#E0E0E0" opacity="0.7"/>
  </g>
  
  <!-- Leaves -->
  <ellipse cx="70" cy="40" rx="15" ry="8" fill="#32CD32" transform="rotate(30 70 40)"/>
  <ellipse cx="130" cy="35" rx="12" ry="6" fill="#32CD32" transform="rotate(-45 130 35)"/>
  <ellipse cx="150" cy="50" rx="10" ry="5" fill="#32CD32" transform="rotate(60 150 50)"/>
</svg>